<mxfile host="app.diagrams.net" modified="2023-10-27T07:29:09.853Z" agent="Mozilla/5.0 (X11; Linux x86_64; rv:109.0) Gecko/20100101 Firefox/118.0" etag="I4ljAyj4XJMlEU_hOVvU" version="22.0.8" type="github">
  <diagram name="Page-1" id="WHX4r8rOohVYMr_kNBD3">
    <mxGraphModel dx="1065" dy="1725" grid="1" gridSize="10" guides="1" tooltips="1" connect="1" arrows="1" fold="1" page="1" pageScale="1" pageWidth="850" pageHeight="1100" math="0" shadow="0">
      <root>
        <mxCell id="0" />
        <mxCell id="1" parent="0" />
        <mxCell id="4DGmKzSi5c3qdYX7iXoJ-1" value="" style="rounded=0;whiteSpace=wrap;html=1;" vertex="1" parent="1">
          <mxGeometry x="190" y="-1040" width="450" height="330" as="geometry" />
        </mxCell>
        <mxCell id="4DGmKzSi5c3qdYX7iXoJ-2" style="rounded=0;orthogonalLoop=1;jettySize=auto;html=1;" edge="1" parent="1" source="4DGmKzSi5c3qdYX7iXoJ-3" target="4DGmKzSi5c3qdYX7iXoJ-1">
          <mxGeometry relative="1" as="geometry" />
        </mxCell>
        <mxCell id="4DGmKzSi5c3qdYX7iXoJ-3" value="User" style="shape=umlActor;verticalLabelPosition=bottom;verticalAlign=top;html=1;outlineConnect=0;" vertex="1" parent="1">
          <mxGeometry x="50" y="-910" width="30" height="60" as="geometry" />
        </mxCell>
        <mxCell id="4DGmKzSi5c3qdYX7iXoJ-4" value="&lt;font style=&quot;font-size: 26px;&quot;&gt;&lt;b&gt;&lt;font style=&quot;font-size: 26px;&quot;&gt;Pokemon&lt;/font&gt;&lt;/b&gt;&lt;span&gt;&lt;/span&gt; &lt;b&gt;&lt;font style=&quot;font-size: 26px;&quot;&gt;browsing&lt;/font&gt;&lt;/b&gt;&lt;/font&gt;" style="text;html=1;strokeColor=none;fillColor=none;align=center;verticalAlign=middle;whiteSpace=wrap;rounded=0;" vertex="1" parent="1">
          <mxGeometry x="275" y="-1030" width="280" height="30" as="geometry" />
        </mxCell>
        <mxCell id="4DGmKzSi5c3qdYX7iXoJ-5" value="Search" style="ellipse;whiteSpace=wrap;html=1;" vertex="1" parent="1">
          <mxGeometry x="250" y="-980" width="120" height="80" as="geometry" />
        </mxCell>
        <mxCell id="4DGmKzSi5c3qdYX7iXoJ-6" value="&amp;lt;&amp;lt;extend&amp;gt;&amp;gt;" style="rounded=0;orthogonalLoop=1;jettySize=auto;html=1;dashed=1;" edge="1" parent="1" source="4DGmKzSi5c3qdYX7iXoJ-7" target="4DGmKzSi5c3qdYX7iXoJ-5">
          <mxGeometry x="-0.0769" y="-10" relative="1" as="geometry">
            <mxPoint as="offset" />
          </mxGeometry>
        </mxCell>
        <mxCell id="4DGmKzSi5c3qdYX7iXoJ-7" value="Filter" style="ellipse;whiteSpace=wrap;html=1;" vertex="1" parent="1">
          <mxGeometry x="500" y="-980" width="120" height="80" as="geometry" />
        </mxCell>
        <mxCell id="4DGmKzSi5c3qdYX7iXoJ-8" style="rounded=0;orthogonalLoop=1;jettySize=auto;html=1;dashed=1;" edge="1" parent="1" source="4DGmKzSi5c3qdYX7iXoJ-10" target="4DGmKzSi5c3qdYX7iXoJ-5">
          <mxGeometry relative="1" as="geometry" />
        </mxCell>
        <mxCell id="4DGmKzSi5c3qdYX7iXoJ-9" value="&amp;lt;&amp;lt;extend&amp;gt;&amp;gt;" style="edgeLabel;html=1;align=center;verticalAlign=middle;resizable=0;points=[];" vertex="1" connectable="0" parent="4DGmKzSi5c3qdYX7iXoJ-8">
          <mxGeometry x="-0.2042" relative="1" as="geometry">
            <mxPoint as="offset" />
          </mxGeometry>
        </mxCell>
        <mxCell id="4DGmKzSi5c3qdYX7iXoJ-10" value="Sort" style="ellipse;whiteSpace=wrap;html=1;" vertex="1" parent="1">
          <mxGeometry x="460" y="-860" width="120" height="80" as="geometry" />
        </mxCell>
        <mxCell id="4DGmKzSi5c3qdYX7iXoJ-11" value="" style="rounded=0;whiteSpace=wrap;html=1;" vertex="1" parent="1">
          <mxGeometry x="1030" y="-1060" width="650" height="330" as="geometry" />
        </mxCell>
        <mxCell id="4DGmKzSi5c3qdYX7iXoJ-12" style="rounded=0;orthogonalLoop=1;jettySize=auto;html=1;" edge="1" parent="1" source="4DGmKzSi5c3qdYX7iXoJ-13" target="4DGmKzSi5c3qdYX7iXoJ-11">
          <mxGeometry relative="1" as="geometry" />
        </mxCell>
        <mxCell id="4DGmKzSi5c3qdYX7iXoJ-13" value="User" style="shape=umlActor;verticalLabelPosition=bottom;verticalAlign=top;html=1;outlineConnect=0;" vertex="1" parent="1">
          <mxGeometry x="890" y="-930" width="30" height="60" as="geometry" />
        </mxCell>
        <mxCell id="4DGmKzSi5c3qdYX7iXoJ-14" value="&lt;font style=&quot;font-size: 26px;&quot;&gt;&lt;b&gt;&lt;font style=&quot;font-size: 26px;&quot;&gt;Pokemon&lt;/font&gt;&lt;/b&gt;&lt;span&gt;&lt;/span&gt; &lt;b&gt;team build&lt;br&gt;&lt;/b&gt;&lt;/font&gt;" style="text;html=1;strokeColor=none;fillColor=none;align=center;verticalAlign=middle;whiteSpace=wrap;rounded=0;" vertex="1" parent="1">
          <mxGeometry x="1115" y="-1050" width="280" height="30" as="geometry" />
        </mxCell>
        <mxCell id="4DGmKzSi5c3qdYX7iXoJ-20" value="&amp;lt;&amp;lt;include&amp;gt;&amp;gt;" style="edgeStyle=orthogonalEdgeStyle;rounded=0;orthogonalLoop=1;jettySize=auto;html=1;dashed=1;" edge="1" parent="1" source="4DGmKzSi5c3qdYX7iXoJ-15" target="4DGmKzSi5c3qdYX7iXoJ-16">
          <mxGeometry x="-0.1111" y="10" relative="1" as="geometry">
            <mxPoint as="offset" />
          </mxGeometry>
        </mxCell>
        <mxCell id="4DGmKzSi5c3qdYX7iXoJ-15" value="Create a team" style="ellipse;whiteSpace=wrap;html=1;" vertex="1" parent="1">
          <mxGeometry x="1090" y="-1000" width="120" height="80" as="geometry" />
        </mxCell>
        <mxCell id="4DGmKzSi5c3qdYX7iXoJ-16" value="Add pokemon" style="ellipse;whiteSpace=wrap;html=1;" vertex="1" parent="1">
          <mxGeometry x="1300" y="-1000" width="120" height="80" as="geometry" />
        </mxCell>
        <mxCell id="4DGmKzSi5c3qdYX7iXoJ-21" value="&amp;lt;&amp;lt;exten&amp;gt;&amp;gt;" style="rounded=0;orthogonalLoop=1;jettySize=auto;html=1;dashed=1;" edge="1" parent="1" source="4DGmKzSi5c3qdYX7iXoJ-17" target="4DGmKzSi5c3qdYX7iXoJ-15">
          <mxGeometry relative="1" as="geometry" />
        </mxCell>
        <mxCell id="4DGmKzSi5c3qdYX7iXoJ-17" value="Choose fomat" style="ellipse;whiteSpace=wrap;html=1;" vertex="1" parent="1">
          <mxGeometry x="1210" y="-880" width="120" height="80" as="geometry" />
        </mxCell>
        <mxCell id="4DGmKzSi5c3qdYX7iXoJ-18" value="&amp;lt;&amp;lt;extent&amp;gt;&amp;gt;" style="edgeStyle=orthogonalEdgeStyle;rounded=0;orthogonalLoop=1;jettySize=auto;html=1;dashed=1;" edge="1" parent="1" source="4DGmKzSi5c3qdYX7iXoJ-19" target="4DGmKzSi5c3qdYX7iXoJ-16">
          <mxGeometry y="-10" relative="1" as="geometry">
            <mxPoint as="offset" />
          </mxGeometry>
        </mxCell>
        <mxCell id="4DGmKzSi5c3qdYX7iXoJ-19" value="Select move" style="ellipse;whiteSpace=wrap;html=1;" vertex="1" parent="1">
          <mxGeometry x="1500" y="-1000" width="120" height="80" as="geometry" />
        </mxCell>
      </root>
    </mxGraphModel>
  </diagram>
</mxfile>
